<svg xmlns="http://www.w3.org/2000/svg" viewBox="0 0 512 512" role="img" aria-label="Zone Sketch Intruder icon"><defs><linearGradient id="bg" x1="0" y1="0" x2="1" y2="1"><stop stop-color="#02070e"/><stop offset="1" stop-color="#06152b"/></linearGradient><linearGradient id="line" x1="0" y1="0" x2="1" y2="1"><stop stop-color="#1f63ff"/><stop offset="1" stop-color="#47c9ff"/></linearGradient><linearGradient id="shield" x1="0" y1="0" x2="0" y2="1"><stop stop-color="#4fa5ff"/><stop offset="1" stop-color="#1252cf"/></linearGradient><pattern id="grid" width="32" height="32" patternUnits="userSpaceOnUse"><path d="M32 0H0V32" fill="none" stroke="#174a7c" stroke-width="1" opacity=".42"/></pattern><filter id="glow" x="-40%" y="-40%" width="180%" height="180%"><feGaussianBlur stdDeviation="5" result="b"/><feMerge><feMergeNode in="b"/><feMergeNode in="SourceGraphic"/></feMerge></filter></defs><rect width="512" height="512" rx="106" fill="url(#bg)"/><rect x="18" y="18" width="476" height="476" rx="88" fill="url(#grid)" stroke="#2f7cff" stroke-width="3"/><path d="M54 116V66h50M458 116V66h-50M54 396v50h50M458 396v50h-50" fill="none" stroke="#29cfff" stroke-width="7"/><g filter="url(#glow)"><path d="M118 259 256 122l138 137v132h-92v-66h-92v66h-92V259Z" fill="none" stroke="url(#line)" stroke-width="24" stroke-linecap="square" stroke-linejoin="miter"/><path d="M256 205 329 235v61c0 51-30 93-73 112-43-19-73-61-73-112v-61l73-30Z" fill="url(#shield)" stroke="#8edcff" stroke-width="7"/><circle cx="256" cy="281" r="24" fill="#07192a" stroke="#c0ecff" stroke-width="8"/><path d="m244 299-11 53h46l-11-53Z" fill="#07192a" stroke="#c0ecff" stroke-width="7" stroke-linejoin="round"/></g></svg>