<svg xmlns="http://www.w3.org/2000/svg" viewBox="0 0 512 512" role="img" aria-label="Zone Sketch CCTV icon"><defs><linearGradient id="bg" x1="0" y1="0" x2="1" y2="1"><stop stop-color="#02070e"/><stop offset="1" stop-color="#06152b"/></linearGradient><linearGradient id="line" x1="0" y1="0" x2="1" y2="1"><stop stop-color="#2f7cff"/><stop offset="1" stop-color="#31d8ff"/></linearGradient><pattern id="grid" width="32" height="32" patternUnits="userSpaceOnUse"><path d="M32 0H0V32" fill="none" stroke="#174a7c" stroke-width="1" opacity=".42"/></pattern><filter id="glow" x="-40%" y="-40%" width="180%" height="180%"><feGaussianBlur stdDeviation="5" result="b"/><feMerge><feMergeNode in="b"/><feMergeNode in="SourceGraphic"/></feMerge></filter></defs><rect width="512" height="512" rx="106" fill="url(#bg)"/><rect x="18" y="18" width="476" height="476" rx="88" fill="url(#grid)" stroke="#2f7cff" stroke-width="3"/><path d="M54 116V66h50M458 116V66h-50M54 396v50h50M458 396v50h-50" fill="none" stroke="#29cfff" stroke-width="7"/><g filter="url(#glow)"><path d="M118 259 256 122l138 137v132h-92v-66h-92v66h-92V259Z" fill="none" stroke="url(#line)" stroke-width="24"/><rect x="196" y="242" width="128" height="82" rx="14" fill="#2f7cff"/><circle cx="257" cy="283" r="25" fill="#07192a" stroke="#92e7ff" stroke-width="8"/><path d="m324 258 54-28v106l-54-29Z" fill="#31d8ff"/></g></svg>