<svg xmlns="http://www.w3.org/2000/svg" viewBox="0 0 512 512" role="img" aria-label="Zone Sketch Access Control icon"><defs><linearGradient id="bg" x1="0" y1="0" x2="1" y2="1"><stop stop-color="#090704"/><stop offset="1" stop-color="#1c1205"/></linearGradient><linearGradient id="line" x1="0" y1="0" x2="1" y2="1"><stop stop-color="#ff9c1f"/><stop offset="1" stop-color="#ffd052"/></linearGradient><pattern id="grid" width="32" height="32" patternUnits="userSpaceOnUse"><path d="M32 0H0V32" fill="none" stroke="#7a4a16" stroke-width="1" opacity=".42"/></pattern><filter id="glow" x="-40%" y="-40%" width="180%" height="180%"><feGaussianBlur stdDeviation="5" result="b"/><feMerge><feMergeNode in="b"/><feMergeNode in="SourceGraphic"/></feMerge></filter></defs><rect width="512" height="512" rx="106" fill="url(#bg)"/><rect x="18" y="18" width="476" height="476" rx="88" fill="url(#grid)" stroke="#ff9c1f" stroke-width="3"/><path d="M54 116V66h50M458 116V66h-50M54 396v50h50M458 396v50h-50" fill="none" stroke="#ffb33e" stroke-width="7"/><g filter="url(#glow)"><path d="M118 259 256 122l138 137v132h-92v-66h-92v66h-92V259Z" fill="none" stroke="url(#line)" stroke-width="24"/><rect x="208" y="218" width="80" height="146" rx="7" fill="none" stroke="#ffb33e" stroke-width="14"/><circle cx="269" cy="291" r="7" fill="#fff3c2"/><path d="M316 250c24 16 24 64 0 80M338 228c39 30 39 94 0 124" fill="none" stroke="#ffd052" stroke-width="12" stroke-linecap="round"/></g></svg>